<svg xmlns="http://www.w3.org/2000/svg" viewBox="0 0 36 36">
    <path d="M18.257 12.636a6.328 6.328 0 0 0-4.501-1.864 6.322 6.322 0 0 0-4.499 1.864 6.322 6.322 0 0 0-1.864 4.5c0 1.252.362 2.454 1.051 3.495l-4.706 4.706a1.25 1.25 0 0 0-.369.89 1.255 1.255 0 0 0 1.259 1.26c.336 0 .652-.131.891-.369l4.698-4.699a6.296 6.296 0 0 0 3.539 1.081c1.7 0 3.299-.662 4.501-1.864a6.326 6.326 0 0 0 1.864-4.5 6.327 6.327 0 0 0-1.864-4.5zm-4.508.641a3.856 3.856 0 0 1 3.852 3.852 3.856 3.856 0 0 1-3.852 3.852 3.856 3.856 0 0 1-3.852-3.852 3.856 3.856 0 0 1 3.852-3.852zm15.877-4.304l-.001 20.819c0 .972-.81 1.762-1.806 1.762H8.184c-.998 0-1.809-.79-1.809-1.762v-1.445l.202-.166 2.173-2.173v2.671c0 .275.225.5.5.5h17.5c.275 0 .5-.225.5-.5l.001-19.051h-3.764a.375.375 0 0 1-.375-.375V5.489H9.249c-.275 0-.5.225-.5.5v5.086a7.815 7.815 0 0 0-2.375 3.367V4.876c0-.972.812-1.763 1.81-1.763h15.583c.499 0 1.141.266 1.494.619l3.746 3.746c.353.354.619.996.619 1.495z" fill="#0568ae"/>
</svg>
